<?xml version="1.0" standalone="no"?>
<!DOCTYPE svg PUBLIC "-//W3C//DTD SVG 20010904//EN"
 "http://www.w3.org/TR/2001/REC-SVG-20010904/DTD/svg10.dtd">
<svg version="1.0" xmlns="http://www.w3.org/2000/svg"
 width="260.000000pt" height="260.000000pt" viewBox="0 0 260.000000 260.000000"
 preserveAspectRatio="xMidYMid meet">
<metadata>
Created by potrace 1.14, written by Peter Selinger 2001-2017
</metadata>
<g transform="translate(0.000000,260.000000) scale(0.100000,-0.100000)"
fill="#000000" stroke="none">
<path d="M2466 2588 c3 -5 9 -6 14 -3 5 3 12 0 16 -6 4 -7 3 -9 -2 -6 -11 6
-39 -8 -39 -20 -1 -4 -7 -19 -14 -32 -8 -14 -9 -21 -2 -17 6 4 11 0 11 -10 0
-9 8 -23 18 -31 15 -12 14 -13 -8 -2 -14 7 -28 16 -31 21 -3 5 -9 2 -12 -7 -5
-10 -3 -14 5 -9 7 4 8 3 4 -4 -4 -7 -19 -12 -34 -12 -21 0 -24 2 -12 10 8 5
10 10 4 10 -6 0 -18 -8 -25 -17 -8 -9 -9 -14 -4 -11 6 4 16 -2 23 -12 7 -13 8
-21 2 -25 -6 -4 -9 -1 -8 5 2 7 -7 16 -20 21 -14 5 -21 5 -17 -1 3 -5 -3 -13
-12 -19 -10 -6 -13 -11 -6 -11 6 0 10 -9 8 -20 -2 -12 0 -18 6 -15 5 4 6 11 3
17 -4 7 -2 8 5 4 8 -6 9 -12 2 -20 -6 -7 -7 -16 -3 -21 4 -4 -3 -3 -14 3 -20
11 -22 9 -19 -23 1 -19 -2 -35 -8 -35 -5 0 -7 7 -3 15 3 8 1 15 -4 15 -6 0
-10 -4 -10 -9 0 -6 -8 -10 -17 -10 -62 -2 -86 -4 -70 -8 10 -3 14 -9 10 -16
-4 -8 -1 -7 9 1 10 8 19 9 22 3 8 -13 -4 -19 -31 -16 -21 2 -24 -18 -7 -48 6
-9 5 -9 -7 0 -10 8 -19 9 -29 1 -12 -8 -12 -9 3 -4 14 5 17 1 14 -19 -2 -14
-6 -25 -10 -25 -4 0 -10 0 -13 0 -4 0 0 7 7 17 13 15 12 15 -8 3 -11 -8 -19
-20 -16 -27 4 -9 0 -11 -11 -7 -9 3 -14 9 -11 13 2 4 -6 7 -17 6 -24 -2 -35
-19 -19 -30 6 -3 9 0 8 7 -2 7 -2 10 0 5 3 -4 9 -5 13 -2 5 3 12 0 16 -6 4 -7
3 -9 -3 -6 -13 8 -51 -43 -47 -65 1 -9 -3 -15 -9 -12 -7 2 -23 -5 -37 -16 -14
-11 -18 -19 -10 -18 8 2 21 10 28 18 11 13 11 11 2 -8 -6 -12 -15 -20 -19 -18
-4 3 -18 -2 -30 -10 -19 -13 -20 -18 -9 -32 8 -11 4 -10 -11 3 -21 17 -23 17
-18 3 4 -12 2 -15 -9 -11 -13 5 -13 8 2 24 9 10 20 16 24 14 4 -3 11 2 14 10
4 12 2 13 -13 6 -10 -6 -22 -7 -26 -3 -5 4 -4 1 0 -7 6 -11 4 -13 -8 -8 -9 3
-19 1 -23 -5 -4 -7 -3 -8 4 -4 7 4 12 3 12 -3 0 -5 -6 -12 -12 -14 -10 -4 -10
-6 0 -6 7 -1 10 -6 6 -13 -4 -7 -3 -8 4 -4 7 4 12 2 12 -3 0 -6 -9 -11 -19
-11 -12 0 -23 -11 -29 -29 -9 -26 -8 -28 14 -25 13 1 22 -2 19 -6 -3 -5 -13
-6 -22 -3 -12 5 -14 3 -8 -8 5 -9 1 -8 -11 3 -13 11 -24 14 -34 8 -18 -11 -33
-3 -24 13 4 7 3 8 -2 4 -5 -5 -9 -12 -10 -15 -2 -18 -17 -41 -23 -38 -4 3 -7
-4 -7 -14 0 -10 3 -17 6 -15 4 2 7 -2 7 -10 0 -8 -4 -12 -9 -9 -4 3 -16 0 -25
-6 -17 -11 -17 -11 1 -6 13 5 17 2 13 -8 -3 -7 0 -19 6 -26 7 -7 0 -5 -16 5
-24 16 -27 16 -21 1 3 -9 10 -16 15 -16 5 0 9 -5 9 -11 0 -5 -4 -7 -10 -4 -10
6 -15 -9 -10 -30 1 -5 -2 -7 -6 -2 -12 11 -12 47 -1 40 6 -3 7 -1 3 6 -4 6
-13 8 -19 4 -7 -4 -22 -8 -35 -9 -23 -1 -45 -14 -23 -14 7 0 9 -5 5 -12 -4 -7
-3 -8 5 -4 6 4 8 13 5 19 -4 7 -3 9 1 4 5 -4 9 -16 10 -26 1 -16 -2 -18 -22
-10 -38 14 -51 10 -20 -7 15 -8 27 -16 27 -18 0 -6 -23 -1 -37 7 -7 5 -16 -1
-23 -15 -10 -20 -9 -21 2 -7 11 14 17 15 31 4 16 -11 16 -13 2 -19 -9 -3 -14
-9 -11 -14 2 -4 -8 -21 -22 -38 -15 -16 -23 -24 -18 -17 6 9 3 20 -9 33 -16
18 -20 19 -35 5 -9 -8 -20 -12 -23 -8 -4 3 -7 1 -7 -6 0 -7 6 -11 14 -8 7 3
20 0 27 -6 11 -10 11 -9 1 5 -9 11 -10 18 -2 23 19 12 23 -26 5 -43 -10 -9
-15 -12 -11 -5 4 8 -2 11 -21 9 -15 -2 -29 -9 -31 -17 -3 -11 -1 -10 7 1 9 13
11 13 11 -2 0 -10 -4 -18 -10 -18 -5 0 -10 -5 -10 -11 0 -6 7 -8 16 -5 9 3 12
2 8 -5 -3 -6 -15 -9 -25 -6 -11 3 -19 1 -19 -4 0 -5 5 -9 11 -9 5 0 8 -4 4
-10 -3 -5 -12 -7 -20 -3 -18 6 -20 -13 -3 -23 7 -4 8 -3 4 4 -5 8 -1 10 10 5
15 -5 15 -7 0 -15 -9 -5 -13 -14 -10 -20 4 -7 2 -8 -5 -4 -6 4 -9 12 -6 17 4
5 -1 9 -9 9 -8 0 -18 -4 -21 -10 -3 -5 -11 -10 -16 -10 -6 0 -7 6 -3 13 6 9 5
9 -8 0 -8 -7 -17 -11 -19 -9 -2 2 -13 -5 -24 -16 -15 -15 -16 -18 -3 -13 13 5
15 2 11 -16 -4 -16 -3 -20 6 -15 6 4 3 -7 -8 -25 -11 -18 -18 -36 -15 -41 3
-4 0 -8 -6 -8 -7 0 -10 6 -7 14 3 8 0 17 -7 19 -10 4 -12 -1 -9 -14 3 -11 0
-19 -6 -19 -7 0 -10 4 -6 9 3 5 0 13 -7 17 -7 4 -10 4 -6 -1 4 -4 3 -15 -2
-25 -8 -14 -5 -17 15 -15 18 2 22 -1 17 -13 -3 -10 -7 -12 -10 -4 -2 7 -8 12
-13 12 -6 0 -8 -4 -4 -9 3 -5 -9 -3 -25 6 -17 8 -34 12 -37 9 -4 -3 -1 -6 6
-6 7 0 9 -5 6 -10 -4 -6 -3 -10 2 -9 4 1 15 1 23 0 13 -1 13 -3 0 -10 -8 -6
-18 -8 -22 -5 -12 8 -49 -16 -43 -27 11 -17 35 -10 29 8 -5 15 -4 15 4 3 15
-20 4 -33 -24 -27 -13 2 -23 1 -22 -2 2 -19 -3 -31 -11 -27 -5 3 -12 -1 -15
-10 -3 -8 -10 -12 -16 -9 -5 3 -7 0 -4 -8 3 -9 -2 -13 -17 -12 -13 1 -25 8
-27 16 -3 12 -2 12 6 0 6 -8 12 -9 16 -3 8 13 -19 23 -41 15 -15 -6 -16 -4 -6
8 12 15 12 36 0 56 -4 6 -1 13 5 16 7 3 3 4 -9 4 -15 -1 -19 -5 -13 -13 6 -6
6 -15 2 -19 -4 -5 -2 -5 5 -2 7 5 10 1 9 -10 -2 -9 -9 -19 -17 -21 -11 -3 -11
-1 1 7 14 10 7 16 -15 11 -5 -1 -4 4 2 11 10 10 10 16 -2 29 -10 11 -11 20 -4
30 9 13 10 12 5 -2 -3 -11 -1 -15 8 -12 19 7 15 31 -5 30 -10 -1 -17 4 -16 9
1 6 7 8 12 7 6 -2 6 0 2 4 -11 11 -38 14 -31 3 8 -13 -10 -11 -24 3 -10 10
-15 10 -22 -2 -5 -8 -12 -11 -16 -7 -4 3 -2 13 5 21 9 11 8 15 -4 20 -9 3 -13
2 -10 -4 3 -6 1 -10 -4 -10 -15 0 -14 13 1 28 10 10 10 15 -1 21 -8 5 -10 14
-6 21 5 8 4 11 -3 6 -6 -3 -13 -2 -17 4 -3 5 -1 10 4 10 6 0 11 4 11 8 0 9 -7
10 -55 13 -14 1 -22 6 -18 12 3 5 1 7 -5 4 -5 -4 -8 -16 -5 -26 3 -10 1 -21
-4 -24 -5 -3 -8 12 -7 34 2 37 1 38 -13 22 -10 -13 -13 -14 -10 -3 7 24 -11
50 -31 44 -10 -4 -13 -3 -6 3 15 11 24 52 13 59 -5 3 -7 9 -4 14 3 5 0 12 -6
16 -7 4 -9 3 -5 -4 3 -6 2 -13 -4 -17 -14 -9 -1 -27 13 -19 7 4 8 3 4 -1 -16
-19 -35 -13 -33 10 2 18 -1 21 -18 17 -12 -3 -28 -10 -36 -16 -13 -9 -13 -9
-2 6 10 12 11 22 3 36 -6 11 -7 23 -3 27 4 5 2 5 -5 1 -6 -3 -14 -2 -18 4 -3
5 0 10 7 10 7 1 3 6 -10 13 -25 14 -20 29 6 20 14 -4 15 -3 2 6 -11 7 -20 5
-34 -7 -11 -9 -16 -12 -13 -5 4 6 -2 18 -14 26 -20 14 -20 16 -2 27 11 7 12
10 3 7 -8 -2 -21 3 -28 12 -11 14 -12 13 -3 -5 9 -18 7 -23 -8 -27 -15 -3 -18
0 -14 17 4 20 4 20 -10 3 -10 -12 -17 -14 -22 -8 -3 6 -1 11 4 11 6 0 11 8 11
18 0 14 -2 15 -10 2 -5 -8 -10 -10 -10 -4 0 6 3 14 7 18 10 10 13 37 3 31 -4
-3 -11 2 -14 11 -5 12 -2 15 9 10 10 -3 13 -2 10 4 -4 6 -12 10 -18 9 -27 -3
-38 2 -31 14 5 7 0 6 -11 -3 -17 -14 -18 -13 -12 3 9 24 -7 21 -27 -5 l-17
-23 11 23 c9 18 7 27 -9 49 -12 14 -21 21 -21 15 0 -6 5 -14 10 -17 6 -4 7
-11 4 -17 -5 -7 -2 -8 7 -3 12 8 12 6 0 -8 -7 -9 -19 -17 -25 -17 -7 0 -7 3
-1 8 6 4 11 12 12 17 2 15 -51 90 -64 90 -6 0 -15 4 -20 9 -5 5 -3 6 5 2 7 -4
15 -1 18 8 3 9 11 13 17 9 6 -3 7 -1 3 5 -5 9 -13 9 -26 2 -13 -7 -21 -7 -26
2 -4 6 -3 8 4 4 6 -3 13 -2 17 3 3 6 -3 8 -15 6 -11 -2 -20 1 -20 6 0 6 -5 7
-10 4 -8 -5 -7 -11 1 -21 8 -10 8 -14 0 -14 -6 0 -11 5 -11 11 0 5 -5 7 -12 3
-6 -4 -8 -3 -4 4 3 6 -2 15 -11 21 -11 6 -13 11 -5 11 7 0 10 5 7 10 -5 7 -11
8 -19 1 -9 -7 -12 -4 -13 12 0 12 1 16 4 9 4 -10 8 -10 19 -1 17 14 18 29 3
29 -5 0 -7 -5 -3 -12 5 -7 3 -8 -5 -3 -7 4 -10 16 -7 27 2 12 -1 27 -9 34 -16
16 -29 19 -20 4 3 -5 1 -10 -4 -10 -6 0 -11 5 -11 10 0 6 -5 10 -11 10 -6 0
-8 -7 -5 -16 3 -9 2 -12 -5 -8 -6 3 -8 17 -5 29 3 13 2 27 -4 30 -5 3 -7 0 -4
-8 3 -8 -3 -20 -12 -28 -10 -8 -15 -9 -11 -3 8 13 -40 37 -55 28 -7 -4 -8 -2
-4 5 4 6 15 9 24 7 10 -3 23 -2 30 3 11 7 10 9 -3 14 -10 4 -14 3 -9 -4 3 -6
-3 -5 -15 3 -12 7 -21 18 -21 24 0 18 30 26 36 10 3 -8 12 -17 21 -20 9 -4 6
5 -9 23 -15 18 -26 24 -30 17 -6 -8 -11 -7 -17 3 -7 11 -9 11 -14 0 -3 -8 -4
-3 -3 11 1 14 6 32 11 40 6 10 2 9 -11 -2 -16 -14 -23 -15 -32 -6 -9 9 -12 9
-12 -1 0 -7 -4 -9 -10 -6 -5 3 -10 2 -10 -2 0 -5 5 -14 10 -21 7 -8 7 -9 -1
-3 -40 33 -39 48 -39 -1145 l0 -1144 1300 0 1300 0 0 1300 0 1301 -69 -3 c-38
-1 -67 -6 -65 -10z m16 -42 c-9 -16 -9 -39 2 -54 5 -7 7 -15 4 -18 -3 -2 -13
7 -22 21 -13 19 -14 30 -7 39 6 7 9 15 6 18 -3 2 2 5 10 5 8 0 11 -5 7 -11z
m-52 -120 c0 -2 -7 -7 -16 -10 -8 -3 -12 -2 -9 4 6 10 25 14 25 6z m-73 -13
c-4 -3 -1 -13 6 -21 11 -13 9 -14 -10 -1 -16 9 -19 16 -10 21 15 9 23 10 14 1z
m-2277 -117 c-7 -7 -14 -6 -21 1 -9 9 -7 12 9 10 14 -1 18 -5 12 -11z m2142
-53 c-6 -3 -9 -10 -5 -16 4 -7 -1 -6 -10 2 -21 17 -21 17 6 18 12 0 16 -1 9
-4z m-2072 -77 c0 -3 -4 -8 -10 -11 -5 -3 -10 -1 -10 4 0 6 5 11 10 11 6 0 10
-2 10 -4z m36 -28 c3 -4 -1 -5 -10 -4 -8 1 -18 5 -22 8 -3 4 1 5 10 4 8 -1 18
-5 22 -8z m69 2 c3 -5 1 -10 -4 -10 -6 0 -11 5 -11 10 0 6 2 10 4 10 3 0 8 -4
11 -10z m-28 -15 c0 -8 -4 -12 -9 -9 -5 3 -6 10 -3 15 9 13 12 11 12 -6z
m1874 -18 c-10 -9 -11 -8 -5 6 3 10 9 15 12 12 3 -3 0 -11 -7 -18z m-185 -176
c-4 -5 0 -12 6 -14 8 -3 6 -6 -4 -6 -18 -1 -24 10 -11 22 9 10 15 8 9 -2z
m-1505 -23 c11 -21 11 -22 -4 -9 -10 7 -17 17 -17 22 0 15 9 10 21 -13z m1452
-29 c-6 -6 -9 -19 -6 -28 4 -14 3 -14 -6 -1 -7 9 -14 11 -18 5 -5 -5 -14 -11
-21 -13 -10 -2 -10 2 -2 17 6 11 17 18 24 15 8 -3 17 -1 21 5 3 6 9 11 13 11
3 0 1 -5 -5 -11z m-1318 -66 c10 -16 12 -23 5 -16 -7 6 -20 9 -29 6 -13 -4
-13 -3 -2 5 7 5 10 15 7 21 -4 6 -5 11 -3 11 3 0 13 -12 22 -27z m1285 13 c0
-3 -4 -8 -10 -11 -5 -3 -10 -1 -10 4 0 6 5 11 10 11 6 0 10 -2 10 -4z m-1290
-40 c0 -2 -7 -7 -16 -10 -8 -3 -12 -2 -9 4 6 10 25 14 25 6z m1270 0 c0 -3 -4
-8 -10 -11 -5 -3 -10 -1 -10 4 0 6 5 11 10 11 6 0 10 -2 10 -4z m-85 -72 c0
-25 -10 -23 -17 4 -3 10 0 19 6 19 6 0 11 -10 11 -23z m-1125 -14 c8 -5 11
-10 5 -10 -5 0 -17 5 -25 10 -8 5 -10 10 -5 10 6 0 17 -5 25 -10z m90 -34 c0
-2 -7 -6 -15 -10 -8 -3 -15 -1 -15 4 0 6 7 10 15 10 8 0 15 -2 15 -4z m24 -67
c-10 -17 -26 -9 -21 12 4 15 2 19 -8 15 -10 -3 -12 0 -8 11 5 14 9 13 25 -7
10 -12 15 -26 12 -31z m934 -9 c-7 -10 -14 -17 -17 -15 -4 4 18 35 25 35 2 0
-1 -9 -8 -20z m-891 -32 c-3 -8 -6 -5 -6 6 -1 11 2 17 5 13 3 -3 4 -12 1 -19z
m54 -81 c-10 -9 -11 -8 -5 6 3 10 9 15 12 12 3 -3 0 -11 -7 -18z m80 -54 c-12
-20 -14 -14 -5 12 4 9 9 14 11 11 3 -2 0 -13 -6 -23z m559 6 c-7 -11 -14 -18
-17 -15 -3 3 0 12 7 21 18 21 23 19 10 -6z m-523 5 c-4 -4 3 -20 14 -35 16
-22 17 -27 5 -23 -9 3 -16 12 -16 20 0 8 -4 14 -10 14 -5 0 -10 7 -10 15 0 8
5 15 12 15 6 0 8 -3 5 -6z m489 -11 c-2 -9 -9 -19 -17 -21 -11 -3 -11 -1 1 7
13 10 13 11 0 11 -13 0 -13 1 0 10 19 12 19 13 16 -7z m-403 -131 c-6 -15 -5
-15 10 -3 9 7 17 11 17 7 0 -3 0 -9 0 -13 1 -13 -31 -11 -36 2 -3 8 -13 11
-22 8 -13 -4 -12 -2 3 10 24 18 37 13 28 -11z m228 -120 c-6 -2 -8 -9 -5 -15
5 -8 2 -8 -6 0 -11 10 -17 9 -32 -4 -18 -16 -18 -16 -12 0 6 16 18 21 38 18 5
-1 6 6 2 15 -6 15 -4 15 10 3 10 -8 12 -15 5 -17z"/>
<path d="M2340 2475 c-7 -9 -11 -17 -9 -20 3 -2 10 5 17 15 14 24 10 26 -8 5z"/>
<path d="M2295 2380 c-3 -5 -1 -10 4 -10 6 0 11 5 11 10 0 6 -2 10 -4 10 -3 0
-8 -4 -11 -10z"/>
<path d="M33 2345 c0 -8 4 -12 9 -9 5 3 6 10 3 15 -9 13 -12 11 -12 -6z"/>
<path d="M3 2315 c0 -8 4 -12 9 -9 4 3 8 9 8 15 0 5 -4 9 -8 9 -5 0 -9 -7 -9
-15z"/>
<path d="M117 2323 c-10 -9 -9 -23 1 -23 5 0 9 7 9 15 0 17 -1 18 -10 8z"/>
<path d="M2246 2322 c-3 -5 1 -9 9 -9 8 0 15 4 15 9 0 4 -4 8 -9 8 -6 0 -12
-4 -15 -8z"/>
<path d="M2155 2250 c3 -5 8 -10 11 -10 2 0 4 5 4 10 0 6 -5 10 -11 10 -5 0
-7 -4 -4 -10z"/>
<path d="M125 2240 c3 -5 8 -10 11 -10 2 0 4 5 4 10 0 6 -5 10 -11 10 -5 0 -7
-4 -4 -10z"/>
<path d="M210 2201 c0 -6 4 -13 10 -16 6 -3 7 1 4 9 -7 18 -14 21 -14 7z"/>
<path d="M150 2196 c0 -2 7 -7 16 -10 8 -3 12 -2 9 4 -6 10 -25 14 -25 6z"/>
<path d="M2044 2135 c-9 -23 10 -40 25 -22 9 11 8 17 -4 27 -12 10 -16 9 -21
-5z m21 -4 c3 -5 1 -12 -5 -16 -5 -3 -10 1 -10 9 0 18 6 21 15 7z"/>
<path d="M2030 2090 c8 -5 20 -10 25 -10 6 0 3 5 -5 10 -8 5 -19 10 -25 10 -5
0 -3 -5 5 -10z"/>
<path d="M300 2079 c0 -5 -5 -7 -12 -3 -7 5 -8 3 -2 -7 5 -8 9 -17 9 -21 0 -3
4 -10 9 -15 5 -4 6 -3 2 4 -3 6 1 13 11 16 17 4 17 5 1 6 -11 1 -15 6 -12 16
4 8 3 15 0 15 -3 0 -6 -5 -6 -11z"/>
<path d="M1985 2060 c-3 -6 1 -7 9 -4 18 7 21 14 7 14 -6 0 -13 -4 -16 -10z"/>
<path d="M394 1975 c11 -8 23 -20 27 -26 3 -6 7 1 7 16 0 19 -3 23 -9 14 -6
-10 -9 -11 -9 -1 0 6 -8 12 -17 12 -16 -1 -16 -2 1 -15z"/>
<path d="M535 1879 c-4 -6 -5 -12 -2 -15 2 -3 7 2 10 11 7 17 1 20 -8 4z"/>
<path d="M649 1717 c7 -7 14 -8 21 -1 6 6 2 10 -12 11 -16 2 -18 -1 -9 -10z"/>
<path d="M1631 1647 c-6 -8 -7 -18 -3 -22 4 -5 -1 -5 -10 -2 -12 4 -15 2 -11
-9 4 -11 8 -12 19 -3 8 7 12 14 9 17 -3 3 0 11 6 19 6 7 9 13 6 13 -2 0 -10
-6 -16 -13z"/>
<path d="M738 1618 c5 -5 16 -8 23 -6 8 3 3 7 -10 11 -17 4 -21 3 -13 -5z"/>
<path d="M833 1543 c4 -6 2 -13 -5 -15 -8 -3 -6 -6 4 -10 17 -7 19 15 3 29 -4
4 -5 3 -2 -4z"/>
<path d="M1353 1370 c1 -11 4 -20 8 -20 10 0 19 27 12 34 -12 12 -22 5 -20
-14z"/>
<path d="M1260 1326 c0 -2 7 -9 15 -16 9 -7 15 -8 15 -2 0 5 -7 12 -15 16 -8
3 -15 4 -15 2z"/>
</g>
</svg>
